<?xml version="1.0" encoding="UTF-8"?> <svg xmlns="http://www.w3.org/2000/svg" width="100" height="56" viewBox="0 0 100 56" fill="none"><path id="Epic logo" fill-rule="evenodd" clip-rule="evenodd" d="M66.6127 15.0888C62.4471 15.0888 59.0694 11.7149 59.0625 7.55092V7.54478V7.53787C59.0694 3.37388 62.4464 0 66.6127 0C70.7789 0 74.1567 3.37388 74.1636 7.53787V7.54478V7.55092C74.1559 11.7149 70.7782 15.0888 66.6127 15.0888ZM86.5968 34.7911C87.6987 34.7911 88.6769 34.2605 89.2896 33.4412L89.2889 33.4405L94.1531 36.2492L99.4236 39.2921C97.2752 42.7912 93.7362 45.3442 89.5745 46.1804C89.5669 46.182 89.5592 46.1834 89.5514 46.1848C89.5442 46.1861 89.537 46.1874 89.53 46.1889C89.4271 46.2096 89.3242 46.2288 89.2205 46.2472C89.2115 46.2489 89.2022 46.2503 89.1928 46.2517C89.1847 46.253 89.1765 46.2542 89.1683 46.2557C89.0639 46.2741 88.9595 46.2918 88.8543 46.3071C88.8351 46.3102 88.8151 46.3125 88.7959 46.3156C88.7302 46.3249 88.6645 46.3342 88.5986 46.3431C88.5613 46.3482 88.5239 46.3531 88.4865 46.3578C88.4619 46.3609 88.4366 46.3632 88.412 46.3662C88.3137 46.3778 88.2147 46.3893 88.1156 46.3993C88.0818 46.4023 88.0488 46.4046 88.0158 46.4077L88.0151 46.4078C87.924 46.4162 87.8328 46.4246 87.7409 46.4315C87.6948 46.4346 87.6488 46.4369 87.6027 46.44C87.5228 46.4446 87.443 46.4507 87.3631 46.4545C87.2963 46.4576 87.2288 46.4599 87.1619 46.4622C87.1206 46.4638 87.0792 46.4658 87.0376 46.4673C87.0189 46.468 87.0003 46.4687 86.9815 46.4691C86.8533 46.4722 86.7251 46.4737 86.5961 46.4737C86.4671 46.4737 86.3388 46.4722 86.2106 46.4691C86.1699 46.4681 86.1295 46.4664 86.0892 46.4647C86.0695 46.4638 86.0498 46.463 86.0302 46.4622C85.9626 46.4599 85.8958 46.4576 85.829 46.4545C85.7508 46.4508 85.6741 46.4457 85.5968 46.4404L85.5894 46.44C85.5434 46.4377 85.4973 46.4346 85.4513 46.4315L85.4512 46.4315C85.3591 46.4246 85.2677 46.4162 85.1763 46.4077C85.1427 46.4054 85.1098 46.4024 85.0769 46.3993L85.0765 46.3993C84.9775 46.3893 84.8784 46.3785 84.7801 46.3662C84.7556 46.3632 84.7302 46.3609 84.7056 46.3578C84.602 46.3455 84.4991 46.3309 84.3962 46.3156C84.3866 46.314 84.3768 46.3127 84.367 46.3113C84.3572 46.31 84.3474 46.3087 84.3378 46.3071C84.2327 46.291 84.1282 46.2733 84.0238 46.2557C84.0148 46.254 84.0055 46.2526 83.9962 46.2512C83.988 46.2499 83.9798 46.2487 83.9716 46.2472C83.8682 46.2288 83.7655 46.2089 83.6628 46.189L83.6621 46.1889C83.6476 46.1866 83.6322 46.1835 83.6176 46.1804C78.6174 45.1761 74.5149 41.6924 72.6452 37.0662V46.1651H60.5802V37.0109C58.7204 41.6625 54.6064 45.1692 49.587 46.1774C49.5797 46.1789 49.5722 46.1802 49.5647 46.1816C49.5573 46.1829 49.5498 46.1843 49.5425 46.1858C49.4396 46.2065 49.3367 46.2257 49.233 46.2442C49.2255 46.2455 49.2178 46.2467 49.21 46.2479C49.2004 46.2494 49.1906 46.2509 49.1808 46.2526C49.0764 46.271 48.972 46.2879 48.8668 46.304C48.8558 46.3058 48.8446 46.3073 48.8334 46.3089C48.825 46.31 48.8166 46.3112 48.8084 46.3125C48.7055 46.3279 48.6026 46.3424 48.499 46.3555C48.4744 46.3586 48.4491 46.3609 48.4245 46.3639C48.3262 46.3755 48.2272 46.387 48.1281 46.397C48.0943 46.4008 48.0613 46.4031 48.0283 46.4062C47.9369 46.4146 47.8456 46.4231 47.7534 46.43C47.7227 46.4325 47.692 46.4344 47.6613 46.4363C47.6459 46.4372 47.6306 46.4382 47.6152 46.4392C47.5353 46.4438 47.4555 46.4499 47.3756 46.4538C47.3088 46.4568 47.2413 46.4592 47.1745 46.4615C47.1548 46.4622 47.1351 46.4631 47.1154 46.4639C47.0749 46.4656 47.0343 46.4673 46.994 46.4684C46.8658 46.4714 46.7376 46.473 46.6086 46.473C46.4796 46.473 46.3513 46.4714 46.2231 46.4684C46.1824 46.4673 46.1419 46.4656 46.1017 46.4639C46.082 46.4631 46.0623 46.4622 46.0427 46.4615C45.9751 46.4592 45.9083 46.4568 45.8415 46.4538C45.7609 46.4499 45.6818 46.4446 45.6019 46.4392C45.5559 46.4361 45.5098 46.4338 45.4637 46.43C45.3716 46.4231 45.2802 46.4146 45.1888 46.4062C45.1668 46.4036 45.1448 46.4017 45.1228 46.3999C45.1118 46.3989 45.1008 46.398 45.0898 46.397C44.9907 46.387 44.8917 46.3755 44.7934 46.3639C44.7769 46.3619 44.76 46.3602 44.7432 46.3583C44.7351 46.3574 44.727 46.3565 44.7189 46.3555C44.6153 46.3424 44.5124 46.3279 44.4095 46.3125C44.3956 46.3103 44.3814 46.3085 44.3673 46.3065C44.3619 46.3057 44.3565 46.3049 44.3511 46.304C44.2459 46.2879 44.1415 46.2703 44.0371 46.2526C44.028 46.251 44.0187 46.2495 44.0093 46.2481C44.0012 46.2468 43.993 46.2456 43.9849 46.2442C43.8814 46.2258 43.7788 46.2059 43.6761 46.1859L43.6754 46.1858C43.6681 46.1843 43.6608 46.1829 43.6535 46.1816C43.6462 46.1802 43.6389 46.1789 43.6317 46.1774V56.0003H31.5666V46.1651H14.1781C6.32776 46.0476 0 39.6477 0 31.7696C0 27.1127 2.21214 22.9733 5.64131 20.3411C5.1952 18.9521 4.95332 17.4709 4.95332 15.9337C4.95332 8.08719 11.2296 1.70722 19.0355 1.53906L34.3032 1.5406V13.5458H21.8688C20.6909 13.5458 19.7358 14.5009 19.7358 15.6788C19.7358 16.8567 20.6909 17.8119 21.8688 17.8119H29.5518V29.8769H17.7693C16.5876 29.8769 15.6294 30.8344 15.6294 32.0161C15.6294 33.1978 16.5876 34.1561 17.7693 34.1561H31.5658V31.4256C31.5658 31.3911 31.5674 31.3565 31.5674 31.3212V31.2145C31.5674 31.1996 31.5679 31.1847 31.5685 31.1698C31.5691 31.1546 31.5697 31.1393 31.5697 31.1239C31.5712 31.0609 31.5728 30.9987 31.5751 30.9365C31.5774 30.8728 31.5797 30.8098 31.5827 30.7461C31.5856 30.6812 31.5893 30.6171 31.5929 30.5523L31.5935 30.5419C31.5966 30.4889 31.5996 30.4351 31.6035 30.3814C31.6088 30.3008 31.615 30.2209 31.6219 30.141C31.625 30.1034 31.6288 30.0666 31.6319 30.0289C31.6411 29.9314 31.6511 29.8331 31.6618 29.7356C31.6626 29.728 31.6635 29.7205 31.6645 29.713C31.6655 29.7055 31.6664 29.698 31.6672 29.6903C32.5011 22.4412 38.4871 16.7615 45.8714 16.4044C45.9229 16.4021 45.9743 16.399 46.0265 16.3967C46.0633 16.3952 46.1003 16.3944 46.1373 16.3935C46.1559 16.3931 46.1746 16.3926 46.1932 16.3921L46.1965 16.392C46.2629 16.3898 46.3286 16.3875 46.3951 16.3868H46.4128H46.6093C46.6754 16.3868 46.7406 16.386 46.8059 16.3868H46.8236C46.864 16.3872 46.9042 16.3885 46.9444 16.3898C46.9714 16.3907 46.9984 16.3915 47.0255 16.3921C47.0441 16.3926 47.0627 16.3931 47.0814 16.3935C47.1184 16.3944 47.1554 16.3952 47.1921 16.3967C47.2178 16.3979 47.2438 16.3992 47.2697 16.4006C47.2956 16.4019 47.3215 16.4033 47.3472 16.4044C53.3632 16.6954 58.4509 20.5193 60.5809 25.8465V16.6908H72.646V25.7974C74.7882 20.4978 79.8629 16.6977 85.8589 16.4083C85.899 16.4065 85.9391 16.4042 85.9795 16.4022C85.991 16.4016 86.0025 16.4011 86.014 16.4006C86.0507 16.399 86.0877 16.3982 86.1247 16.3973C86.1434 16.3969 86.1621 16.3965 86.1807 16.396C86.2482 16.3944 86.315 16.3914 86.3826 16.3906H86.4003H86.5968H86.7934H86.8111C86.8515 16.3911 86.8917 16.3923 86.9319 16.3936C86.9589 16.3945 86.9859 16.3954 87.013 16.396C87.0316 16.3965 87.0503 16.3969 87.069 16.3973C87.1059 16.3982 87.1429 16.399 87.1796 16.4006C87.2054 16.4017 87.2313 16.4031 87.2573 16.4044C87.2831 16.4058 87.309 16.4071 87.3347 16.4083C92.4531 16.6555 96.8997 19.4612 99.4243 23.5737L94.1539 26.6167L89.2896 29.4254C88.6769 28.6061 87.6987 28.0756 86.5968 28.0756C84.7433 28.0756 83.2398 29.5775 83.2368 31.4303V31.4333V31.4364C83.2398 33.29 84.7433 34.7911 86.5968 34.7911ZM46.6101 34.788C48.4637 34.788 49.9671 33.2861 49.9702 31.4333V31.4272C49.9671 29.5736 48.4637 28.0725 46.6101 28.0725C44.7565 28.0725 43.2531 29.5736 43.25 31.4272V31.4303V31.4333C43.2531 33.2869 44.7565 34.788 46.6101 34.788Z" fill="#222222"></path></svg> 