<svg xmlns="http://www.w3.org/2000/svg" width="16" height="16.00024" viewBox="0 0 16 16.00024"><defs><style>.b754d06a-9e94-46a9-bf7a-d1c78bee641e{fill:#f4c850}</style></defs><g id="a4c6796c-ec90-4be4-a046-c25d8fdd0805" data-name="Layer 2"><path class="b754d06a-9e94-46a9-bf7a-d1c78bee641e" d="M15.27635,8.7234A5.0501,5.0501,0,0,1,12.953,10.05031a5.051,5.051,0,0,1,.70523,2.582l-.00137,1.0246H12.6336a5.052,5.052,0,0,1-2.58262-.70568A5.05311,5.05311,0,0,1,8.72319,15.2783l-.72334.72194-.72366-.72342a5.05006,5.05006,0,0,1-1.32672-2.32388,5.05161,5.05161,0,0,1-2.58315.70414H2.343V12.6342a5.05157,5.05157,0,0,1,.70576-2.58291A5.05337,5.05337,0,0,1,.72345,8.72388L0,8.00046l.72345-.72318A5.0513,5.0513,0,0,1,3.04808,5.95a5.05265,5.05265,0,0,1-.706-2.58336V2.34378h1.0233a5.05194,5.05194,0,0,1,2.5836.70608A5.04943,5.04943,0,0,1,7.27667.72342L8.00011,0l.72366.72342a5.05387,5.05387,0,0,1,1.32728,2.3247A5.05156,5.05156,0,0,1,12.63293,2.343H13.656v1.0229A5.05241,5.05241,0,0,1,12.95014,5.949a5.05034,5.05034,0,0,1,2.32621,1.32777L16,8Z" id="ada90e3c-1168-4b23-83b4-94e0be450976" data-name="Layer 1"/></g></svg>